# xmcd
#
# Track frame offsets: 
#        150
#        15655
#        29055
#        39427
#        50695
#        68375
#        85820
#        96715
#        118177
#        145280
#
# Disc length: 2203 seconds
#
# Revision: 4
# Processed by: cddbd v1.5.2PL0 Copyright (c) Steve Scherf et al.
# Submitted via: ExactAudioCopyFreeDBPlugin 1.0
#
DISCID=8b08990a
DTITLE=Vampire Weekend - Contra
DYEAR=2010
DGENRE=Indie Pop
TTITLE0=Horchata
TTITLE1=White Sky
TTITLE2=Holiday
TTITLE3=California English
TTITLE4=Taxi Cab
TTITLE5=Run
TTITLE6=Cousins
TTITLE7=Giving Up the Gun
TTITLE8=Diplomat's Son
TTITLE9=I Think UR a Contra
EXTD=
EXTT0=
EXTT1=
EXTT2=
EXTT3=
EXTT4=
EXTT5=
EXTT6=
EXTT7=
EXTT8=
EXTT9=
PLAYORDER=
